<svg width="18" height="13" viewBox="0 0 18 13" fill="none" xmlns="http://www.w3.org/2000/svg">
<path d="M3.0123 3.83113C3.0123 3.86823 3.0123 3.90534 3.0123 3.93317C3.0123 4.32278 3.0123 4.71238 3.0123 5.10199C3.0123 5.12982 3.02151 5.15765 3.00309 5.18548C2.97545 5.19475 2.95703 5.16692 2.9386 5.14837C2.84648 5.06488 2.75437 4.9814 2.65303 4.89791C2.38589 4.666 2.11875 4.43409 1.8516 4.20218C1.60288 3.98883 1.34495 3.7662 1.08702 3.54356C0.819872 3.31165 0.561939 3.07975 0.294795 2.84784C0.211888 2.7829 0.128981 2.70869 0.0460746 2.63448C0.0276508 2.61593 0.00922713 2.60665 1.52588e-05 2.56955C0.976474 1.71612 1.96214 0.8627 2.9386 0.00927611C2.94781 -2.29805e-07 2.95703 0.00927634 2.95703 0C2.97545 0.00927634 2.97545 0.0185527 2.97545 0.0371053C2.97545 0.055658 2.97545 0.0834872 2.97545 0.10204C2.97545 0.463817 2.97545 0.825595 2.97545 1.18737C2.97545 1.22448 2.96624 1.25231 2.99387 1.28941C3.04914 1.28941 3.10442 1.28941 3.1689 1.29869C3.29787 1.30796 3.41762 1.31724 3.53737 1.31724C3.59265 1.31724 3.65713 1.32652 3.7124 1.32652C3.93348 1.34507 4.15457 1.35435 4.36644 1.3729C4.54147 1.38218 4.70728 1.40073 4.88231 1.42856C5.03891 1.44711 5.1863 1.48421 5.33369 1.52132C5.60083 1.59553 5.85877 1.70685 6.09828 1.84599C6.35621 1.99441 6.5865 2.17066 6.79838 2.38402C7.2037 2.79218 7.60902 3.20034 8.02355 3.6085C8.42888 4.01666 8.84341 4.42482 9.24874 4.83297C9.69091 5.26896 10.1239 5.70495 10.5568 6.15022C10.824 6.41923 11.0819 6.68824 11.349 6.95726C11.4964 7.10568 11.6438 7.26338 11.7912 7.4118C11.9939 7.61588 12.1873 7.81996 12.39 8.02404C12.5097 8.15391 12.6387 8.2745 12.7769 8.38582C12.9611 8.52496 13.1638 8.627 13.3849 8.68266C13.5323 8.71976 13.6796 8.73832 13.827 8.73832C13.9192 8.73832 14.0113 8.73832 14.1034 8.71976C14.1771 8.71049 14.2416 8.71049 14.3153 8.70121C14.3982 8.69193 14.4811 8.69193 14.5732 8.69193C14.693 8.68266 14.8035 8.68266 14.9232 8.68266C14.9325 8.68266 14.9509 8.67338 14.9601 8.67338C14.9785 8.63628 14.9693 8.60845 14.9693 8.58062C14.9693 8.20956 14.9693 7.84779 14.9693 7.47673C14.9693 7.4489 14.9601 7.4118 14.9785 7.39325C15.0062 7.38397 15.0246 7.40252 15.0338 7.4118C15.0891 7.45818 15.1535 7.51384 15.2088 7.56022C15.4023 7.73647 15.6049 7.90344 15.7984 8.07969C16.1576 8.39509 16.5169 8.71049 16.8854 9.02588C17.217 9.31345 17.5394 9.60102 17.871 9.88858C17.9079 9.92569 17.954 9.95352 17.9816 9.9999C17.9632 10.0185 17.9447 10.037 17.9263 10.0556C17.65 10.2967 17.3736 10.5379 17.0973 10.7791C16.6919 11.1316 16.2866 11.4841 15.8813 11.8366C15.6141 12.0685 15.3562 12.3004 15.0891 12.5323C15.0706 12.5509 15.0522 12.5694 15.0154 12.5694C15.0154 12.5416 15.0062 12.5231 15.0062 12.5045C15.0062 12.319 15.0062 12.1335 15.0062 11.9572C15.0062 11.7717 15.0062 11.5862 15.0062 11.4006C15.0062 11.3728 15.0062 11.345 15.0062 11.3079C14.9877 11.2986 14.9693 11.2893 14.9601 11.2893C14.8956 11.2893 14.8311 11.28 14.7666 11.28C14.7114 11.28 14.6561 11.2708 14.6008 11.2708C14.4627 11.2615 14.3245 11.2615 14.1863 11.2522C13.9928 11.2429 13.7994 11.2337 13.606 11.2244C13.477 11.2151 13.3572 11.2151 13.2283 11.2058C13.1177 11.1965 13.0072 11.178 12.8874 11.1594C12.8229 11.1502 12.7492 11.1316 12.6848 11.1223C12.6111 11.1038 12.5374 11.0852 12.4729 11.0574C12.2979 11.0017 12.1228 10.9275 11.957 10.844C11.7175 10.7235 11.4872 10.575 11.2753 10.3988C11.1003 10.2596 10.9345 10.1019 10.7779 9.94424C10.6305 9.79582 10.4923 9.65667 10.3449 9.50825C9.5343 8.69193 8.73287 7.87562 7.92223 7.0593C7.72878 6.86449 7.53533 6.66969 7.35109 6.47489C7.24055 6.36357 7.13922 6.25226 7.02867 6.14094C6.86286 5.97397 6.69705 5.79771 6.54044 5.63074C6.39305 5.44521 6.23645 5.28752 6.08906 5.12054C5.95088 4.97212 5.80349 4.81442 5.66532 4.666C5.40738 4.40626 5.13103 4.18363 4.7994 4.02593C4.6428 3.95172 4.47698 3.89606 4.31117 3.85896C4.17299 3.82185 4.03482 3.8033 3.89664 3.79402C3.75846 3.77547 3.62028 3.77547 3.47289 3.78475C3.35314 3.78475 3.23338 3.8033 3.10442 3.81258C3.07678 3.81258 3.05836 3.82185 3.0123 3.83113Z" fill="white"/>
<path d="M0.0092926 10.4452C0.0092926 10.408 0.0369282 10.3895 0.0553519 10.3802C0.175106 10.2689 0.304073 10.1669 0.423827 10.0555C0.6357 9.87002 0.838361 9.69377 1.05023 9.50824C1.27132 9.31344 1.4924 9.12791 1.70428 8.93311C2.08196 8.59916 2.46886 8.26521 2.85576 7.93126C2.89261 7.90343 2.92024 7.86633 2.95709 7.8385C2.9663 7.82922 2.98473 7.82922 3.00315 7.81995C3.01236 7.8385 3.01236 7.84778 3.02157 7.86633C3.02157 7.88488 3.02157 7.91271 3.02157 7.93126C3.02157 8.30232 3.02157 8.68265 3.02157 9.0537C3.02157 9.15574 3.02157 9.16502 3.13212 9.17429C3.27951 9.19285 3.41769 9.20212 3.56508 9.2114C3.7401 9.22068 3.91513 9.22068 4.08094 9.20212C4.56917 9.15574 5.00213 8.97949 5.3706 8.64554C5.50878 8.51567 5.62854 8.37653 5.74829 8.22811C5.87726 8.07041 6.00622 7.92199 6.13519 7.77357C6.26415 7.62514 6.40233 7.47672 6.5313 7.3283C6.58657 7.27264 6.59578 7.26337 6.65105 7.31903C6.80765 7.47672 6.97347 7.63442 7.13007 7.79212C7.33273 7.98692 7.52618 8.191 7.72884 8.38581C7.89466 8.55278 8.06047 8.71048 8.21707 8.87745C8.26313 8.92383 8.29998 8.96094 8.34604 8.99804C8.35525 9.02587 8.32761 9.04443 8.3184 9.06298C8.21707 9.18357 8.12495 9.30416 8.02362 9.42476C7.81175 9.68449 7.58145 9.92568 7.34194 10.1576C6.94583 10.5472 6.51288 10.8811 6.02465 11.1502C5.80356 11.2707 5.58248 11.3635 5.34297 11.447C5.13109 11.5212 4.91001 11.5769 4.67971 11.614C4.50469 11.6418 4.32966 11.6696 4.14542 11.6696C4.03488 11.6696 3.92434 11.6789 3.8138 11.6789C3.67562 11.6696 3.52823 11.6789 3.39005 11.6511C3.29793 11.6325 3.20581 11.6232 3.11369 11.614C3.08606 11.614 3.04921 11.6047 3.02157 11.614C3.01236 11.6418 3.01236 11.6789 3.01236 11.7067C3.01236 12.1056 3.01236 12.5045 3.01236 12.9127C3.01236 12.9405 3.01236 12.9683 3.00315 12.9869C3.00315 12.9961 2.98473 13.0054 2.97552 12.9961C2.9663 12.9961 2.94788 12.9776 2.93867 12.9683C2.74522 12.8013 2.55177 12.6344 2.35832 12.4581C2.05433 12.1891 1.74112 11.9201 1.43713 11.6511C1.16078 11.4099 0.875209 11.1594 0.598853 10.9182C0.423827 10.7698 0.258013 10.6214 0.0829875 10.473C0.0553519 10.4915 0.0277163 10.4637 0.0092926 10.4452Z" fill="white"/>
<path d="M11.4043 6.07601C11.3858 6.06673 11.3674 6.05746 11.3582 6.04818C11.2845 5.98325 11.22 5.91831 11.1463 5.85338C10.9621 5.67713 10.7779 5.51015 10.5936 5.3339C10.4278 5.1762 10.262 5.02778 10.1054 4.87008C9.97642 4.74949 9.83824 4.6289 9.70927 4.49903C9.69085 4.48048 9.66321 4.45265 9.64479 4.4341C9.654 4.41554 9.66321 4.39699 9.67243 4.38771C9.89351 4.08159 10.1238 3.78475 10.3817 3.50646C10.4831 3.39515 10.5844 3.28383 10.6949 3.18179C10.9989 2.89422 11.3214 2.62521 11.6806 2.41185C11.9109 2.27271 12.1412 2.16139 12.3899 2.05935C12.5281 2.00369 12.6755 1.95731 12.8229 1.92021C12.9979 1.87383 13.1729 1.846 13.348 1.81817C13.5875 1.78106 13.827 1.78106 14.0665 1.78106C14.2139 1.78106 14.3613 1.79034 14.5087 1.80889C14.6468 1.82744 14.7942 1.846 14.9324 1.87383C14.9508 1.87383 14.9693 1.87383 15.0061 1.87383C15.0153 1.85527 15.0153 1.83672 15.0153 1.82744C15.0153 1.79034 15.0153 1.74396 15.0153 1.70685C15.0153 1.31724 15.0153 0.936915 15.0153 0.547308C15.0153 0.519479 15.0153 0.500926 15.0153 0.473097C15.0337 0.454545 15.0522 0.454545 15.0614 0.473097C15.1259 0.528755 15.1903 0.584413 15.2456 0.630795C15.6049 0.936915 15.9549 1.24303 16.3142 1.55843C16.5261 1.74396 16.7471 1.92948 16.959 2.11501C17.2077 2.32837 17.4565 2.54172 17.7052 2.75508C17.7881 2.82929 17.871 2.89422 17.9539 2.96843C17.9723 2.98699 17.9815 2.99626 18 3.01482C17.9907 3.05192 17.9631 3.07047 17.9355 3.08903C17.6407 3.34876 17.3367 3.6085 17.0419 3.86824C16.6734 4.19291 16.305 4.50831 15.9365 4.83298C15.6601 5.07416 15.3838 5.31535 15.1074 5.55653C15.089 5.57509 15.0706 5.60292 15.0429 5.58436C15.0245 5.57509 15.0337 5.53798 15.0337 5.51943C15.0337 5.18548 15.0337 4.85153 15.0337 4.51758C15.0337 4.41554 15.0337 4.41554 14.9416 4.38771C14.7942 4.34133 14.6468 4.30423 14.4994 4.26712C14.3705 4.23929 14.2415 4.23929 14.1125 4.23002C14.0389 4.22074 13.9744 4.23929 13.9007 4.23929C13.6427 4.25785 13.394 4.33206 13.1545 4.44337C12.9703 4.53614 12.7953 4.64745 12.6294 4.77732C12.482 4.89791 12.3439 5.02778 12.2057 5.16693C12.0307 5.34318 11.8649 5.5287 11.7083 5.72351C11.6069 5.83482 11.5148 5.95542 11.4043 6.07601Z" fill="white"/>
</svg>
